<svg width="30" height="30" viewBox="0 0 30 30" fill="none" xmlns="http://www.w3.org/2000/svg">
<g clip-path="url(#clip0_38_102)">
<path d="M8.41104 15.7954H11.5231V29.0433C11.5231 29.3049 11.7281 29.5168 11.981 29.5168H17.2576C17.5106 29.5168 17.7155 29.3049 17.7155 29.0433V15.8578H21.2931C21.5257 15.8578 21.7215 15.6773 21.748 15.4384L22.2914 10.5612C22.3063 10.427 22.2652 10.2926 22.1784 10.192C22.0914 10.0912 21.9671 10.0335 21.8366 10.0335H17.7157V6.97627C17.7157 6.05466 18.1956 5.58732 19.1422 5.58732C19.2771 5.58732 21.8366 5.58732 21.8366 5.58732C22.0895 5.58732 22.2945 5.37529 22.2945 5.11382V0.637004C22.2945 0.375445 22.0895 0.163508 21.8366 0.163508H18.1234C18.0972 0.162182 18.039 0.160004 17.9533 0.160004C17.309 0.160004 15.0695 0.290783 13.3005 1.97359C11.3405 3.83841 11.6129 6.07123 11.6781 6.45836V10.0335H8.41104C8.15809 10.0335 7.95312 10.2454 7.95312 10.5069V15.3218C7.95312 15.5834 8.15809 15.7954 8.41104 15.7954Z" fill="white"/>
</g>
<defs>
<clipPath id="clip0_38_102">
<rect width="28.3906" height="29.3568" fill="white" transform="translate(0.929688 0.160004)"/>
</clipPath>
</defs>
</svg>
