<svg width="35" height="33" viewBox="0 0 35 33" fill="none" xmlns="http://www.w3.org/2000/svg">
<g clip-path="url(#clip0_38_100)">
<path d="M17.4007 0C12.6735 0 12.0833 0.02035 10.2272 0.09768C8.37407 0.17908 7.11252 0.45177 6.00323 0.8547C4.85914 1.26984 3.8876 1.82743 2.92041 2.73233C1.95323 3.63722 1.3558 4.54483 0.913535 5.6166C0.482869 6.65445 0.189957 7.83475 0.104404 9.56857C0.0174007 11.3051 0 11.8573 0 16.28C0 20.7027 0.0217508 21.2549 0.104404 22.9914C0.191407 24.7239 0.482869 25.9056 0.913535 26.9434C1.35043 28.0299 2.03529 29.0142 2.92041 29.8277C3.7894 30.6564 4.84159 31.2972 6.00323 31.7053C7.11398 32.1069 8.37552 32.3823 10.2272 32.4623C12.0833 32.5437 12.6735 32.56 17.4007 32.56C22.1279 32.56 22.718 32.5396 24.5741 32.4623C26.4258 32.3809 27.6888 32.1069 28.7981 31.7053C29.9591 31.296 31.0111 30.6553 31.8809 29.8277C32.767 29.0149 33.452 28.0304 33.8878 26.9434C34.317 25.9056 34.6114 24.7239 34.6969 22.9914C34.7839 21.2549 34.8013 20.7027 34.8013 16.28C34.8013 11.8573 34.7796 11.3051 34.6969 9.56857C34.6099 7.83611 34.317 6.65309 33.8878 5.6166C33.4507 4.53021 32.7659 3.54596 31.8809 2.73233C31.0126 1.90292 29.9602 1.26196 28.7981 0.8547C27.6888 0.45177 26.4258 0.177723 24.5741 0.09768C22.718 0.01628 22.1279 0 17.4007 0ZM17.4007 2.9304C22.0452 2.9304 22.5991 2.95211 24.4334 3.02672C26.13 3.10134 27.0508 3.36453 27.6627 3.58974C28.4777 3.88414 29.0548 4.23687 29.6667 4.80531C30.2743 5.37511 30.6513 5.91642 30.9659 6.67887C31.2038 7.25138 31.488 8.11287 31.5648 9.70017C31.6475 11.4177 31.6663 11.9332 31.6663 16.28C31.6663 20.6268 31.6446 21.1437 31.559 22.8598C31.4706 24.4471 31.1878 25.3086 30.9485 25.8811C30.6655 26.5876 30.2205 27.2276 29.6449 27.756C29.0825 28.295 28.399 28.7103 27.6439 28.9716C27.0348 29.1941 26.0996 29.46 24.403 29.5319C22.5556 29.6092 22.0119 29.6269 17.3572 29.6269C12.701 29.6269 12.1573 29.6065 10.3113 29.5265C8.61333 29.4437 7.67805 29.1792 7.06902 28.9553C6.31341 28.6938 5.6301 28.277 5.0694 27.7357C4.48732 27.213 4.04089 26.5726 3.76435 25.8635C3.52509 25.2937 3.24378 24.4186 3.15532 22.8313C3.09007 21.1219 3.06687 20.5942 3.06687 16.2596C3.06687 11.9237 3.09007 11.3946 3.15532 9.66489C3.24378 8.07759 3.52509 7.2039 3.76435 6.6341C4.06886 5.8608 4.45892 5.3317 5.0694 4.76054C5.67697 4.1921 6.24394 3.8258 7.06902 3.54226C7.67805 3.31705 8.59303 3.0525 10.2896 2.9711C12.1384 2.91005 12.6822 2.8897 17.3354 2.8897L17.4007 2.9304ZM17.4007 7.92022C16.2273 7.92022 15.0654 8.13645 13.9813 8.55657C12.8972 8.97669 11.9122 9.59247 11.0825 10.3687C10.2528 11.145 9.59462 12.0666 9.14558 13.0809C8.69654 14.0951 8.46543 15.1822 8.46543 16.28C8.46543 17.3778 8.69654 18.4649 9.14558 19.4791C9.59462 20.4934 10.2528 21.415 11.0825 22.1913C11.9122 22.9675 12.8972 23.5833 13.9813 24.0034C15.0654 24.4235 16.2273 24.6398 17.4007 24.6398C19.7704 24.6398 22.0432 23.759 23.7188 22.1913C25.3945 20.6235 26.3359 18.4972 26.3359 16.28C26.3359 14.0628 25.3945 11.9365 23.7188 10.3687C22.0432 8.80098 19.7704 7.92022 17.4007 7.92022ZM17.4007 21.7067C14.196 21.7067 11.6004 19.2782 11.6004 16.28C11.6004 13.2818 14.196 10.8533 17.4007 10.8533C20.6053 10.8533 23.2009 13.2818 23.2009 16.28C23.2009 19.2782 20.6053 21.7067 17.4007 21.7067ZM28.7778 7.59055C28.7577 8.09608 28.5289 8.57462 28.1395 8.9256C27.7501 9.27659 27.2304 9.47269 26.6897 9.47269C26.149 9.47269 25.6294 9.27659 25.24 8.9256C24.8506 8.57462 24.6218 8.09608 24.6017 7.59055C24.6017 7.07242 24.8216 6.57552 25.2132 6.20915C25.6048 5.84278 26.1359 5.63695 26.6897 5.63695C27.2435 5.63695 27.7746 5.84278 28.1662 6.20915C28.5578 6.57552 28.7778 7.07242 28.7778 7.59055Z" fill="white"/>
</g>
<defs>
<clipPath id="clip0_38_100">
<rect width="34.8013" height="32.56" fill="white"/>
</clipPath>
</defs>
</svg>
